<svg viewBox="0 0 32 32" xmlns="http://www.w3.org/2000/svg">
  <defs>
    <linearGradient id="bgGradient" x1="0%" y1="0%" x2="100%" y2="100%">
      <stop offset="0%" stop-color="#1a1a1a"/>
      <stop offset="100%" stop-color="#000000"/>
    </linearGradient>
    <linearGradient id="wingGradient" x1="0%" y1="0%" x2="100%" y2="100%">
      <stop offset="0%" stop-color="#ffffff"/>
      <stop offset="100%" stop-color="#e5e5e5"/>
    </linearGradient>
  </defs>
  
  <!-- Background -->
  <rect width="32" height="32" rx="6" fill="url(#bgGradient)"/>
  
  <!-- Stylized eagle/wings symbol -->
  <g transform="translate(16, 16)">
    <!-- Left wing -->
    <path d="M0,3 C-5,-2 -7,0 -10,-8 Q-7,-4 -5,-3 Q-2,-1 0,2 C-0.5,1 -0.3,-1 0,3" fill="url(#wingGradient)"/>
    <!-- Right wing -->
    <path d="M0,3 C5,-2 7,0 10,-8 Q7,-4 5,-3 Q2,-1 0,2 C0.5,1 0.3,-1 0,3" fill="url(#wingGradient)"/>
    <!-- Body -->
    <path d="M0,3 C-0.5,-2 0,-6 0,-12 Q0.1,-8 0,-6 Q-0.1,-3 0,2 C0.1,2.5 0,2.8 0,3" fill="url(#wingGradient)"/>
  </g>
</svg>